<mxfile host="Electron" modified="2023-05-19T23:51:18.376Z" agent="Mozilla/5.0 (Windows NT 10.0; Win64; x64) AppleWebKit/537.36 (KHTML, like Gecko) draw.io/21.2.8 Chrome/112.0.5615.165 Electron/24.2.0 Safari/537.36" etag="2UFjU62DJ8XMtz8AD1rZ" version="21.2.8" type="device">
  <diagram name="Page-1" id="COqvitSMYsdaYFFPjpEJ">
    <mxGraphModel dx="1105" dy="654" grid="1" gridSize="10" guides="1" tooltips="1" connect="1" arrows="1" fold="1" page="1" pageScale="1" pageWidth="1169" pageHeight="827" math="0" shadow="0">
      <root>
        <mxCell id="0" />
        <mxCell id="1" parent="0" />
        <UserObject label="&lt;div style=&quot;font-size: 11.27px;&quot;&gt;&lt;font style=&quot;font-size: 11.27px; direction: ltr; letter-spacing: 0px; line-height: 120%; opacity: 1;&quot;&gt;Start&lt;/font&gt;&lt;/div&gt;" Function="EN_DIO_Error_T DIO_init(uint8_t pinNumber, EN_DIO_PORT_T portNumber, EN_DIO_DIRECTION_T direction);" tags="Flowchart" id="jMrh40zEoEmYeKQ16b9b-1">
          <mxCell style="verticalAlign=middle;align=center;overflow=width;vsdxID=30;fillColor=#dae8fc;shape=stencil(tVLREoIgEPwaHnEQxsl3s/9gEpSJwDko7e+DsEkze2l627vdu5uFRaxyHe8FosR5sCcxqMZ3iO0Rpcp0ApQPCLEasUpaEC3Yi2lS3fOojOhsr3HDmObyMtsVcYqS29Qh5FEfklwrM5OXeUa/yjkcAwfr7TDpiyTfXvjkMR+Vw2A998qaBac5tAKHU1hq3i4oNwjRr9ofvayt/+Rk+yX/4iWA159KpXWKxJx/z0Bopfyw+g4=);strokeColor=#6c8ebf;spacingTop=-1;spacingBottom=-1;spacingLeft=-1;spacingRight=-1;points=[[0.5,1,0],[0.5,0,0],[0,0.5,0],[1,0.5,0]];labelBackgroundColor=none;rounded=1;html=1;fontFamily=Calibri;fontSize=11.27;labelBorderColor=none;whiteSpace=wrap;" vertex="1" parent="1">
            <mxGeometry x="82.5" y="80" width="101" height="38" as="geometry" />
          </mxCell>
        </UserObject>
        <mxCell id="jMrh40zEoEmYeKQ16b9b-2" value="&lt;div style=&quot;font-size: 11.27px;&quot;&gt;	Uint32_t val = 0;&lt;/div&gt;&lt;div style=&quot;font-size: 11.27px;&quot;&gt;&lt;br style=&quot;font-size: 11.27px;&quot;&gt;&lt;/div&gt;" style="rounded=0;html=1;fontSize=11.27;fillColor=#d5e8d4;strokeColor=#82b366;fontFamily=Calibri;labelBorderColor=none;whiteSpace=wrap;" vertex="1" parent="1">
          <mxGeometry x="80" y="170" width="103.5" height="44" as="geometry" />
        </mxCell>
        <mxCell id="jMrh40zEoEmYeKQ16b9b-3" value="&lt;div style=&quot;font-size: 11.27px;&quot;&gt;&lt;div style=&quot;font-size: 11.27px;&quot;&gt;	DIO_WritePin(DIO_PORTB,DIO_PIN3,DIO_HIGH);&lt;/div&gt;&lt;/div&gt;&lt;div style=&quot;font-size: 11.27px;&quot;&gt;&lt;br style=&quot;font-size: 11.27px;&quot;&gt;&lt;/div&gt;" style="rounded=0;html=1;fontSize=11.27;fillColor=#d5e8d4;strokeColor=#82b366;fontFamily=Calibri;labelBorderColor=none;whiteSpace=wrap;" vertex="1" parent="1">
          <mxGeometry x="80" y="250" width="250" height="44" as="geometry" />
        </mxCell>
        <mxCell id="jMrh40zEoEmYeKQ16b9b-4" value="&lt;div style=&quot;font-size: 11.27px;&quot;&gt;&lt;div style=&quot;font-size: 11.27px;&quot;&gt;&lt;div style=&quot;font-size: 11.27px;&quot;&gt;	_delay_ms(10);&lt;/div&gt;&lt;/div&gt;&lt;/div&gt;&lt;div style=&quot;font-size: 11.27px;&quot;&gt;&lt;br style=&quot;font-size: 11.27px;&quot;&gt;&lt;/div&gt;" style="rounded=0;html=1;fontSize=11.27;fillColor=#d5e8d4;strokeColor=#82b366;fontFamily=Calibri;labelBorderColor=none;whiteSpace=wrap;" vertex="1" parent="1">
          <mxGeometry x="80" y="330" width="97.5" height="40" as="geometry" />
        </mxCell>
        <mxCell id="jMrh40zEoEmYeKQ16b9b-5" value="&lt;div style=&quot;font-size: 11.27px;&quot;&gt;&lt;div style=&quot;font-size: 11.27px;&quot;&gt;&lt;div style=&quot;font-size: 11.27px;&quot;&gt;&lt;div style=&quot;font-size: 11.27px;&quot;&gt;	DIO_WritePin(DIO_PORTB,DIO_PIN3,DIO_LOW);&lt;/div&gt;&lt;/div&gt;&lt;/div&gt;&lt;/div&gt;&lt;div style=&quot;font-size: 11.27px;&quot;&gt;&lt;br style=&quot;font-size: 11.27px;&quot;&gt;&lt;/div&gt;" style="rounded=0;html=1;fontSize=11.27;fillColor=#d5e8d4;strokeColor=#82b366;fontFamily=Calibri;labelBorderColor=none;whiteSpace=wrap;" vertex="1" parent="1">
          <mxGeometry x="77.5" y="410" width="252.5" height="44" as="geometry" />
        </mxCell>
        <mxCell id="jMrh40zEoEmYeKQ16b9b-6" value="&lt;div style=&quot;font-size: 11.27px;&quot;&gt;&lt;div style=&quot;font-size: 11.27px;&quot;&gt;&lt;div style=&quot;font-size: 11.27px;&quot;&gt;&lt;div style=&quot;font-size: 11.27px;&quot;&gt;&lt;div style=&quot;font-size: 11.27px;&quot;&gt;	ICU_RisingEdgeCapture();&lt;/div&gt;&lt;/div&gt;&lt;/div&gt;&lt;/div&gt;&lt;/div&gt;&lt;div style=&quot;font-size: 11.27px;&quot;&gt;&lt;br style=&quot;font-size: 11.27px;&quot;&gt;&lt;/div&gt;" style="rounded=0;html=1;fontSize=11.27;fillColor=#d5e8d4;strokeColor=#82b366;fontFamily=Calibri;labelBorderColor=none;whiteSpace=wrap;" vertex="1" parent="1">
          <mxGeometry x="77.5" y="497" width="140" height="40" as="geometry" />
        </mxCell>
        <UserObject label="" Function="EN_DIO_Error_T DIO_init(uint8_t pinNumber, EN_DIO_PORT_T portNumber, EN_DIO_DIRECTION_T direction);" tags="Flowchart" id="jMrh40zEoEmYeKQ16b9b-7">
          <mxCell style="vsdxID=219;fillColor=#fff2cc;shape=stencil(UzV2Ls5ILEhVNTIoLinKz04tz0wpyVA1dlE1MsrMy0gtyiwBslSNXVWNndPyi1LTi/JL81Ig/IJEkEoQKze/DGRCBUSfAUiHkUElhGcK4bpBVOZk5iGpNEVVikeloQHZpsK0YlWLz1QgA+HFtMycHEgIIcujBwlQCBKcxq4A);strokeColor=#d6b656;spacingTop=-1;spacingBottom=-1;spacingLeft=-1;spacingRight=-1;points=[[0,0.5,0],[1,0.5,0],[0.5,0,0],[0.5,1,0]];labelBackgroundColor=none;rounded=1;html=1;fontFamily=Calibri;fontSize=11.27;labelBorderColor=none;whiteSpace=wrap;" vertex="1" parent="1">
            <mxGeometry x="499.5" y="401" width="101" height="76" as="geometry" />
          </mxCell>
        </UserObject>
        <mxCell id="jMrh40zEoEmYeKQ16b9b-8" value="&lt;div style=&quot;font-size: 11.27px;&quot;&gt;ICU_g_flag != 1&lt;br style=&quot;font-size: 11.27px;&quot;&gt;&lt;/div&gt;" style="text;vsdxID=219;fillColor=none;gradientColor=none;strokeColor=none;spacingTop=-1;spacingBottom=-1;spacingLeft=-1;spacingRight=-1;points=[[0,0.5,0],[1,0.5,0],[0.5,0,0],[0.5,1,0]];labelBackgroundColor=none;rounded=1;html=1;verticalAlign=middle;align=center;overflow=width;;html=1;fontColor=#000000;fontFamily=Calibri;fontSize=11.27;labelBorderColor=none;whiteSpace=wrap;" vertex="1" parent="jMrh40zEoEmYeKQ16b9b-7">
          <mxGeometry x="21.810000000000002" y="22.5" width="57.38" height="31" as="geometry" />
        </mxCell>
        <mxCell id="jMrh40zEoEmYeKQ16b9b-9" value="&lt;div style=&quot;font-size: 11.27px;&quot;&gt;	ICU_getValue(&amp;amp;val);&lt;/div&gt;&lt;div style=&quot;font-size: 11.27px;&quot;&gt;&lt;br style=&quot;font-size: 11.27px;&quot;&gt;&lt;/div&gt;" style="rounded=0;html=1;fontSize=11.27;fillColor=#d5e8d4;strokeColor=#82b366;fontFamily=Calibri;labelBorderColor=none;whiteSpace=wrap;" vertex="1" parent="1">
          <mxGeometry x="493.13" y="320" width="113.75" height="44" as="geometry" />
        </mxCell>
        <mxCell id="jMrh40zEoEmYeKQ16b9b-10" value="&lt;div style=&quot;font-size: 11.27px;&quot;&gt;&lt;div style=&quot;font-size: 11.27px;&quot;&gt;	*Copy_f64distance = ((float)val / 466.47*8)+1;&lt;span style=&quot;font-size: 11.27px;&quot;&gt;	&lt;/span&gt;&lt;/div&gt;&lt;/div&gt;&lt;div style=&quot;font-size: 11.27px;&quot;&gt;&lt;br style=&quot;font-size: 11.27px;&quot;&gt;&lt;/div&gt;" style="rounded=0;html=1;fontSize=11.27;fillColor=#d5e8d4;strokeColor=#82b366;fontFamily=Calibri;labelBorderColor=none;whiteSpace=wrap;" vertex="1" parent="1">
          <mxGeometry x="493.13" y="236" width="140" height="44" as="geometry" />
        </mxCell>
        <mxCell id="jMrh40zEoEmYeKQ16b9b-11" value="&lt;div style=&quot;font-size: 11.27px;&quot;&gt;&lt;div style=&quot;font-size: 11.27px;&quot;&gt;&lt;div style=&quot;font-size: 11.27px;&quot;&gt;	ICU_g_flag = 0;&lt;/div&gt;&lt;/div&gt;&lt;/div&gt;&lt;div style=&quot;font-size: 11.27px;&quot;&gt;&lt;br style=&quot;font-size: 11.27px;&quot;&gt;&lt;/div&gt;" style="rounded=0;html=1;fontSize=11.27;fillColor=#d5e8d4;strokeColor=#82b366;fontFamily=Calibri;labelBorderColor=none;whiteSpace=wrap;" vertex="1" parent="1">
          <mxGeometry x="490.5" y="150" width="110" height="44" as="geometry" />
        </mxCell>
        <mxCell id="jMrh40zEoEmYeKQ16b9b-18" value="" style="endArrow=classic;html=1;rounded=0;fontSize=11.27;startSize=8;endSize=8;curved=1;exitX=0.155;exitY=0.964;exitDx=0;exitDy=0;exitPerimeter=0;fontFamily=Calibri;" edge="1" parent="1" source="jMrh40zEoEmYeKQ16b9b-3">
          <mxGeometry width="50" height="50" relative="1" as="geometry">
            <mxPoint x="410" y="410" as="sourcePoint" />
            <mxPoint x="119" y="330" as="targetPoint" />
          </mxGeometry>
        </mxCell>
        <mxCell id="jMrh40zEoEmYeKQ16b9b-19" value="" style="endArrow=classic;html=1;rounded=0;fontSize=11.27;startSize=8;endSize=8;curved=1;exitX=0.39;exitY=0.982;exitDx=0;exitDy=0;exitPerimeter=0;entryX=0.158;entryY=0.018;entryDx=0;entryDy=0;entryPerimeter=0;fontFamily=Calibri;" edge="1" parent="1" source="jMrh40zEoEmYeKQ16b9b-2" target="jMrh40zEoEmYeKQ16b9b-3">
          <mxGeometry width="50" height="50" relative="1" as="geometry">
            <mxPoint x="320" y="360" as="sourcePoint" />
            <mxPoint x="120" y="240" as="targetPoint" />
          </mxGeometry>
        </mxCell>
        <mxCell id="jMrh40zEoEmYeKQ16b9b-20" value="" style="endArrow=classic;html=1;rounded=0;fontSize=11.27;startSize=8;endSize=8;curved=1;exitX=0.375;exitY=0.989;exitDx=0;exitDy=0;exitPerimeter=0;entryX=0.398;entryY=0.055;entryDx=0;entryDy=0;entryPerimeter=0;fontFamily=Calibri;" edge="1" parent="1" source="jMrh40zEoEmYeKQ16b9b-1" target="jMrh40zEoEmYeKQ16b9b-2">
          <mxGeometry width="50" height="50" relative="1" as="geometry">
            <mxPoint x="320" y="350" as="sourcePoint" />
            <mxPoint x="370" y="300" as="targetPoint" />
          </mxGeometry>
        </mxCell>
        <mxCell id="jMrh40zEoEmYeKQ16b9b-21" value="" style="endArrow=classic;html=1;rounded=0;fontSize=11.27;startSize=8;endSize=8;curved=1;exitX=0.41;exitY=1;exitDx=0;exitDy=0;exitPerimeter=0;fontFamily=Calibri;" edge="1" parent="1" source="jMrh40zEoEmYeKQ16b9b-4">
          <mxGeometry width="50" height="50" relative="1" as="geometry">
            <mxPoint x="320" y="360" as="sourcePoint" />
            <mxPoint x="120" y="410" as="targetPoint" />
          </mxGeometry>
        </mxCell>
        <mxCell id="jMrh40zEoEmYeKQ16b9b-24" value="" style="endArrow=classic;html=1;rounded=0;fontSize=11.27;startSize=8;endSize=8;curved=1;exitX=0.5;exitY=0;exitDx=0;exitDy=0;exitPerimeter=0;entryX=0.5;entryY=1;entryDx=0;entryDy=0;fontFamily=Calibri;" edge="1" parent="1" source="jMrh40zEoEmYeKQ16b9b-7" target="jMrh40zEoEmYeKQ16b9b-9">
          <mxGeometry width="50" height="50" relative="1" as="geometry">
            <mxPoint x="320" y="474" as="sourcePoint" />
            <mxPoint x="370" y="424" as="targetPoint" />
          </mxGeometry>
        </mxCell>
        <mxCell id="jMrh40zEoEmYeKQ16b9b-25" value="YES" style="text;html=1;strokeColor=none;fillColor=none;align=center;verticalAlign=middle;whiteSpace=wrap;rounded=0;fontFamily=Calibri;fontSize=11;" vertex="1" parent="1">
          <mxGeometry x="490" y="371" width="60" height="30" as="geometry" />
        </mxCell>
        <mxCell id="jMrh40zEoEmYeKQ16b9b-30" value="" style="endArrow=classic;html=1;rounded=0;fontSize=11.27;startSize=8;endSize=8;curved=1;exitX=0.734;exitY=0.191;exitDx=0;exitDy=0;exitPerimeter=0;fontFamily=Calibri;" edge="1" parent="1" source="jMrh40zEoEmYeKQ16b9b-7" target="jMrh40zEoEmYeKQ16b9b-7">
          <mxGeometry width="50" height="50" relative="1" as="geometry">
            <mxPoint x="560" y="454" as="sourcePoint" />
            <mxPoint x="610" y="404" as="targetPoint" />
            <Array as="points">
              <mxPoint x="640" y="434" />
              <mxPoint x="650" y="444" />
              <mxPoint x="650" y="454" />
              <mxPoint x="630" y="454" />
            </Array>
          </mxGeometry>
        </mxCell>
        <mxCell id="jMrh40zEoEmYeKQ16b9b-31" value="NO" style="text;html=1;align=center;verticalAlign=middle;resizable=0;points=[];autosize=1;strokeColor=none;fillColor=none;fontFamily=Calibri;fontSize=11;" vertex="1" parent="1">
          <mxGeometry x="605.5" y="401" width="40" height="30" as="geometry" />
        </mxCell>
        <mxCell id="jMrh40zEoEmYeKQ16b9b-32" value="" style="endArrow=classic;html=1;rounded=0;fontSize=11.27;startSize=8;endSize=8;curved=1;exitX=0.5;exitY=0;exitDx=0;exitDy=0;entryX=0.41;entryY=1.041;entryDx=0;entryDy=0;entryPerimeter=0;fontFamily=Calibri;" edge="1" parent="1" source="jMrh40zEoEmYeKQ16b9b-9" target="jMrh40zEoEmYeKQ16b9b-10">
          <mxGeometry width="50" height="50" relative="1" as="geometry">
            <mxPoint x="420" y="330" as="sourcePoint" />
            <mxPoint x="470" y="280" as="targetPoint" />
          </mxGeometry>
        </mxCell>
        <mxCell id="jMrh40zEoEmYeKQ16b9b-33" value="" style="endArrow=classic;html=1;rounded=0;fontSize=11.27;startSize=8;endSize=8;curved=1;entryX=0.5;entryY=1;entryDx=0;entryDy=0;exitX=0.374;exitY=0.091;exitDx=0;exitDy=0;exitPerimeter=0;fontFamily=Calibri;" edge="1" parent="1" source="jMrh40zEoEmYeKQ16b9b-10" target="jMrh40zEoEmYeKQ16b9b-11">
          <mxGeometry width="50" height="50" relative="1" as="geometry">
            <mxPoint x="546" y="230" as="sourcePoint" />
            <mxPoint x="470" y="280" as="targetPoint" />
          </mxGeometry>
        </mxCell>
        <UserObject label="&lt;div style=&quot;font-size: 11.27px;&quot;&gt;Stop&lt;/div&gt;" Function="EN_DIO_Error_T DIO_init(uint8_t pinNumber, EN_DIO_PORT_T portNumber, EN_DIO_DIRECTION_T direction);" tags="Flowchart" id="jMrh40zEoEmYeKQ16b9b-34">
          <mxCell style="verticalAlign=middle;align=center;overflow=width;vsdxID=30;fillColor=#dae8fc;shape=stencil(tVLREoIgEPwaHnEQxsl3s/9gEpSJwDko7e+DsEkze2l627vdu5uFRaxyHe8FosR5sCcxqMZ3iO0Rpcp0ApQPCLEasUpaEC3Yi2lS3fOojOhsr3HDmObyMtsVcYqS29Qh5FEfklwrM5OXeUa/yjkcAwfr7TDpiyTfXvjkMR+Vw2A998qaBac5tAKHU1hq3i4oNwjRr9ofvayt/+Rk+yX/4iWA159KpXWKxJx/z0Bopfyw+g4=);strokeColor=#6c8ebf;spacingTop=-1;spacingBottom=-1;spacingLeft=-1;spacingRight=-1;points=[[0.5,1,0],[0.5,0,0],[0,0.5,0],[1,0.5,0]];labelBackgroundColor=none;rounded=1;html=1;fontFamily=Calibri;fontSize=11.27;labelBorderColor=none;whiteSpace=wrap;" vertex="1" parent="1">
            <mxGeometry x="495" y="80" width="101" height="38" as="geometry" />
          </mxCell>
        </UserObject>
        <mxCell id="jMrh40zEoEmYeKQ16b9b-35" value="" style="endArrow=classic;html=1;rounded=0;fontSize=11.27;startSize=8;endSize=8;curved=1;exitX=0.5;exitY=0;exitDx=0;exitDy=0;entryX=0.5;entryY=1;entryDx=0;entryDy=0;entryPerimeter=0;fontFamily=Calibri;" edge="1" parent="1" source="jMrh40zEoEmYeKQ16b9b-11" target="jMrh40zEoEmYeKQ16b9b-34">
          <mxGeometry width="50" height="50" relative="1" as="geometry">
            <mxPoint x="420" y="330" as="sourcePoint" />
            <mxPoint x="470" y="280" as="targetPoint" />
          </mxGeometry>
        </mxCell>
        <mxCell id="jMrh40zEoEmYeKQ16b9b-36" value="" style="endArrow=classic;html=1;rounded=0;fontSize=11.27;startSize=8;endSize=8;curved=1;exitX=0.173;exitY=0.99;exitDx=0;exitDy=0;exitPerimeter=0;entryX=0.311;entryY=0.051;entryDx=0;entryDy=0;entryPerimeter=0;fontFamily=Calibri;" edge="1" parent="1" source="jMrh40zEoEmYeKQ16b9b-5" target="jMrh40zEoEmYeKQ16b9b-6">
          <mxGeometry width="50" height="50" relative="1" as="geometry">
            <mxPoint x="420" y="440" as="sourcePoint" />
            <mxPoint x="470" y="390" as="targetPoint" />
          </mxGeometry>
        </mxCell>
        <mxCell id="jMrh40zEoEmYeKQ16b9b-37" value="" style="endArrow=classic;html=1;rounded=0;fontSize=11.27;startSize=8;endSize=8;exitX=1;exitY=0.5;exitDx=0;exitDy=0;entryX=0.5;entryY=1;entryDx=0;entryDy=0;entryPerimeter=0;edgeStyle=orthogonalEdgeStyle;fontFamily=Calibri;" edge="1" parent="1" source="jMrh40zEoEmYeKQ16b9b-6" target="jMrh40zEoEmYeKQ16b9b-7">
          <mxGeometry width="50" height="50" relative="1" as="geometry">
            <mxPoint x="420" y="440" as="sourcePoint" />
            <mxPoint x="470" y="390" as="targetPoint" />
            <Array as="points">
              <mxPoint x="218" y="520" />
              <mxPoint x="550" y="520" />
            </Array>
          </mxGeometry>
        </mxCell>
      </root>
    </mxGraphModel>
  </diagram>
</mxfile>
